<svg xmlns="http://www.w3.org/2000/svg" width="195" height="219.986" viewBox="0 0 195 219.986"><g transform="translate(-620 -384)"><g transform="translate(1096 391)" fill="none"><path d="M-476,212l25-68.438h12.113A87.73,87.73,0,0,1-465,81,88,88,0,0,1-377-7a88,88,0,0,1,88,88,87.73,87.73,0,0,1-26.114,62.563H-305l24,69.423Z" stroke="none"/><path d="M -289.437255859375 206.9431915283203 L -309.2742614746094 149.5626220703125 L -315.1136779785156 149.5626220703125 L -329.7102966308594 149.5626220703125 L -319.3333435058594 139.297119140625 C -303.6416625976562 123.7740478515625 -294.9999084472656 103.0704193115234 -294.9999084472656 80.99998474121094 C -294.9999084472656 35.78495025634766 -331.7850646972656 -1.000182032585144 -377.0001220703125 -1.000182032585144 C -422.2151794433594 -1.000182032585144 -459.0003051757812 35.78495025634766 -459.0003051757812 80.99998474121094 C -459.0003051757812 103.0704193115234 -450.3584899902344 123.7740859985352 -434.6668395996094 139.297119140625 L -424.2898254394531 149.5626220703125 L -438.8865051269531 149.5626220703125 L -446.8038940429688 149.5626220703125 L -467.4363098144531 206.0436096191406 L -289.437255859375 206.9431915283203 M -280.9998168945312 212.9859161376953 L -476.0000915527344 212.0004119873047 L -450.9999084472656 143.5626220703125 L -438.8865051269531 143.5626220703125 C -455.0106506347656 127.6117477416992 -465.0003051757812 105.4725189208984 -465.0003051757812 80.99998474121094 C -465.0003051757812 32.39911651611328 -425.6010131835938 -7.000182151794434 -377.0001220703125 -7.000182151794434 C -328.3992004394531 -7.000182151794434 -288.9999084472656 32.39911651611328 -288.9999084472656 80.99998474121094 C -288.9999084472656 105.4725189208984 -298.9895629882812 127.6117477416992 -315.1136779785156 143.5626220703125 L -305.0000915527344 143.5626220703125 L -280.9998168945312 212.9859161376953 Z" stroke="none" fill="#707070"/></g><g transform="translate(0 17)"><path d="M667.688,430.544s47.92,42.128,102.262,0" transform="translate(0 18)" fill="none" stroke="#707070" stroke-width="6"/><path d="M667.688,449.267s47.92-42.128,102.262,0" fill="none" stroke="#707070" stroke-width="6"/><path d="M710.208,440.544s-10.7,16.915,0,35.743" transform="translate(0 -10)" fill="none" stroke="#707070" stroke-width="6"/><path d="M705.453,440.544s10.7,16.915,0,35.743" transform="translate(24 -10)" fill="none" stroke="#707070" stroke-width="6"/></g></g></svg>